# xmcd CD database file
#
# Track frame offsets:
#	150
#	14278
#	39807
#	61374
#	78115
#	99319
#	124768
#	142337
#	166933
#	182788
#	195575
#	215450
#	230061
#	260021
#	271156
#	285733
#
# Disc length: 4112 seconds
#
# Revision: 2
# Processed by: cddbd v1.5.2PL0 Copyright (c) Steve Scherf et al.
# Submitted via: CDex 1.51
#
DISCID=e1100e10
DTITLE=Various Artist - Jazz ~ Le coffret idéal  [CD 2-4] ~ Jazz Instrumental
DYEAR=2010
DGENRE=Jazz
TTITLE0=Ben Webster - Time Ater Time
TTITLE1=Bill Evans - You Must Beilive In Spring
TTITLE2=Colman Hawkins and Milt Jackson - Don't Take Your Love From Me
TTITLE3=Duke Ellington - In A Sentimental Mood
TTITLE4=John Coltrane - Giant Steps
TTITLE5=Junior Mance - Sweet Georgia Brown
TTITLE6=Lee Konitz - I Can't Get Started
TTITLE7=Ornette Coleman - Bird Food
TTITLE8=Ray Briand - Blues #2
TTITLE9=The George Lewis Band Of New Orleans - Salty Dog
TTITLE10=John Lewis - Delaunay's Dilemma
TTITLE11=Tony Fruscella - I'll Be Seeing You
TTITLE12=Yusef Lateef - In The Evening
TTITLE13=Duke Ellington - Satin Doll
TTITLE14=Dizzy Gillespie - Blue And Sentimental
TTITLE15=Dave Brubeck - Koto Song
EXTD=YEAR: 2010
EXTT0=
EXTT1=
EXTT2=
EXTT3=
EXTT4=
EXTT5=
EXTT6=
EXTT7=
EXTT8=
EXTT9=
EXTT10=
EXTT11=
EXTT12=
EXTT13=
EXTT14=
EXTT15=
PLAYORDER=
